<?xml version="1.0" encoding="UTF-8"?>
<svg xmlns="http://www.w3.org/2000/svg" xmlns:xlink="http://www.w3.org/1999/xlink" width="35pt" height="35pt" viewBox="0 0 35 35" version="1.1">
<g id="surface1">
<path style=" stroke:none;fill-rule:nonzero;fill:rgb(100%,83.529412%,47.058824%);fill-opacity:1;" d="M 20.351562 9.6875 C 20.351562 11.261719 19.074219 12.539062 17.5 12.539062 C 15.925781 12.539062 14.652344 11.261719 14.652344 9.6875 C 14.652344 8.117188 15.925781 6.839844 17.5 6.839844 C 19.074219 6.839844 20.351562 8.117188 20.351562 9.6875 Z M 20.351562 9.6875 "/>
<path style=" stroke:none;fill-rule:nonzero;fill:rgb(32.941176%,34.901961%,43.137255%);fill-opacity:1;" d="M 20.351562 9.6875 L 20.921875 9.6875 C 20.921875 7.800781 19.390625 6.269531 17.5 6.269531 C 15.613281 6.269531 14.082031 7.800781 14.082031 9.6875 C 14.082031 11.578125 15.613281 13.109375 17.5 13.109375 C 19.390625 13.109375 20.921875 11.578125 20.921875 9.6875 L 19.78125 9.6875 C 19.78125 10.320312 19.527344 10.886719 19.113281 11.300781 C 18.699219 11.714844 18.132812 11.96875 17.5 11.96875 C 16.871094 11.96875 16.304688 11.714844 15.890625 11.300781 C 15.476562 10.886719 15.222656 10.320312 15.222656 9.6875 C 15.222656 9.058594 15.476562 8.492188 15.890625 8.078125 C 16.304688 7.664062 16.871094 7.410156 17.5 7.410156 C 18.132812 7.410156 18.699219 7.664062 19.113281 8.078125 C 19.527344 8.492188 19.78125 9.058594 19.78125 9.6875 Z M 20.351562 9.6875 "/>
<path style=" stroke:none;fill-rule:nonzero;fill:rgb(100%,83.529412%,47.058824%);fill-opacity:1;" d="M 19.871094 15.269531 L 25.316406 5.53125 C 25.628906 4.984375 26.328125 4.796875 26.875 5.113281 C 27.417969 5.425781 27.605469 6.125 27.289062 6.667969 L 21.84375 16.410156 C 21.53125 16.957031 20.832031 17.144531 20.289062 16.828125 C 19.742188 16.511719 19.554688 15.816406 19.871094 15.269531 Z M 19.871094 15.269531 "/>
<path style=" stroke:none;fill-rule:nonzero;fill:rgb(32.941176%,34.901961%,43.137255%);fill-opacity:1;" d="M 19.871094 15.269531 L 20.367188 15.550781 L 25.8125 5.808594 L 25.316406 5.53125 L 25.808594 5.816406 C 25.914062 5.628906 26.105469 5.53125 26.304688 5.527344 C 26.402344 5.527344 26.496094 5.550781 26.585938 5.605469 C 26.773438 5.710938 26.871094 5.902344 26.875 6.101562 C 26.875 6.195312 26.851562 6.292969 26.796875 6.386719 L 26.792969 6.390625 L 21.347656 16.132812 L 21.84375 16.410156 L 21.351562 16.125 C 21.246094 16.308594 21.054688 16.410156 20.855469 16.410156 C 20.761719 16.410156 20.664062 16.386719 20.570312 16.332031 L 20.574219 16.335938 C 20.390625 16.226562 20.289062 16.039062 20.289062 15.839844 C 20.289062 15.742188 20.3125 15.648438 20.363281 15.558594 L 20.367188 15.550781 L 19.871094 15.269531 L 19.378906 14.984375 C 19.222656 15.253906 19.148438 15.550781 19.148438 15.839844 C 19.148438 16.429688 19.453125 17.003906 20.003906 17.320312 C 20.269531 17.476562 20.566406 17.550781 20.855469 17.550781 C 21.445312 17.550781 22.019531 17.242188 22.339844 16.695312 L 22.34375 16.6875 L 27.789062 6.949219 L 27.289062 6.667969 L 27.785156 6.953125 C 27.9375 6.6875 28.011719 6.390625 28.011719 6.101562 C 28.015625 5.511719 27.707031 4.933594 27.15625 4.617188 L 27.160156 4.621094 C 26.890625 4.460938 26.59375 4.390625 26.304688 4.390625 C 25.714844 4.386719 25.136719 4.695312 24.820312 5.246094 L 24.816406 5.25 L 19.371094 14.992188 L 19.871094 15.269531 L 19.378906 14.984375 Z M 19.871094 15.269531 "/>
<path style=" stroke:none;fill-rule:nonzero;fill:rgb(100%,83.529412%,47.058824%);fill-opacity:1;" d="M 4.675781 32.460938 L 12.355469 24.363281 C 12.792969 23.914062 13.515625 23.90625 13.96875 24.34375 C 14.417969 24.78125 14.425781 25.503906 13.988281 25.957031 L 6.308594 34.054688 C 5.867188 34.503906 5.148438 34.511719 4.695312 34.074219 C 4.246094 33.632812 4.234375 32.910156 4.675781 32.460938 Z M 4.675781 32.460938 "/>
<path style=" stroke:none;fill-rule:nonzero;fill:rgb(32.941176%,34.901961%,43.137255%);fill-opacity:1;" d="M 4.675781 32.460938 L 5.089844 32.851562 L 12.769531 24.757812 L 12.355469 24.363281 L 12.761719 24.761719 C 12.875 24.644531 13.019531 24.589844 13.171875 24.589844 C 13.316406 24.589844 13.457031 24.640625 13.570312 24.75 L 13.570312 24.753906 C 13.683594 24.863281 13.742188 25.007812 13.742188 25.160156 C 13.742188 25.304688 13.6875 25.445312 13.578125 25.558594 L 13.574219 25.5625 L 5.894531 33.660156 L 6.308594 34.054688 L 5.898438 33.65625 C 5.785156 33.769531 5.640625 33.824219 5.492188 33.828125 C 5.347656 33.824219 5.207031 33.773438 5.09375 33.664062 C 4.976562 33.550781 4.921875 33.40625 4.921875 33.257812 C 4.921875 33.109375 4.972656 32.972656 5.082031 32.859375 L 5.089844 32.851562 L 4.675781 32.460938 L 4.269531 32.0625 C 3.945312 32.394531 3.78125 32.828125 3.78125 33.257812 C 3.78125 33.699219 3.957031 34.148438 4.296875 34.480469 C 4.628906 34.804688 5.0625 34.96875 5.492188 34.964844 C 5.933594 34.96875 6.382812 34.792969 6.714844 34.453125 L 6.722656 34.445312 L 14.402344 26.347656 L 13.988281 25.957031 L 14.394531 26.351562 C 14.71875 26.023438 14.882812 25.589844 14.882812 25.160156 C 14.882812 24.714844 14.707031 24.269531 14.363281 23.933594 L 14.367188 23.9375 C 14.035156 23.613281 13.597656 23.449219 13.171875 23.449219 C 12.726562 23.449219 12.28125 23.625 11.945312 23.964844 L 11.941406 23.972656 L 4.261719 32.070312 L 4.675781 32.460938 L 4.269531 32.0625 Z M 4.675781 32.460938 "/>
<path style=" stroke:none;fill-rule:nonzero;fill:rgb(100%,83.529412%,47.058824%);fill-opacity:1;" d="M 15.320312 15.269531 L 9.875 5.53125 C 9.5625 4.984375 8.863281 4.796875 8.320312 5.113281 C 7.773438 5.425781 7.585938 6.125 7.902344 6.667969 L 13.347656 16.410156 C 13.660156 16.957031 14.359375 17.144531 14.902344 16.828125 C 15.449219 16.511719 15.636719 15.816406 15.320312 15.269531 Z M 15.320312 15.269531 "/>
<path style=" stroke:none;fill-rule:nonzero;fill:rgb(32.941176%,34.901961%,43.137255%);fill-opacity:1;" d="M 15.320312 15.269531 L 15.820312 14.992188 L 10.375 5.25 L 10.371094 5.246094 C 10.054688 4.695312 9.476562 4.386719 8.886719 4.390625 C 8.597656 4.386719 8.300781 4.460938 8.03125 4.621094 L 8.035156 4.617188 C 7.484375 4.933594 7.175781 5.511719 7.179688 6.101562 C 7.179688 6.390625 7.253906 6.6875 7.40625 6.953125 L 7.902344 6.667969 L 7.402344 6.949219 L 12.851562 16.6875 L 12.855469 16.695312 C 13.171875 17.242188 13.746094 17.550781 14.335938 17.550781 C 14.625 17.550781 14.921875 17.476562 15.1875 17.320312 C 15.738281 17.003906 16.046875 16.429688 16.042969 15.839844 C 16.042969 15.550781 15.96875 15.253906 15.8125 14.984375 L 15.320312 15.269531 L 15.820312 14.992188 L 15.320312 15.269531 L 14.828125 15.558594 C 14.878906 15.648438 14.902344 15.742188 14.902344 15.839844 C 14.902344 16.039062 14.800781 16.226562 14.621094 16.335938 L 14.621094 16.332031 C 14.527344 16.386719 14.429688 16.410156 14.335938 16.410156 C 14.136719 16.410156 13.945312 16.308594 13.839844 16.125 L 13.347656 16.410156 L 13.84375 16.132812 L 8.398438 6.390625 L 8.394531 6.386719 C 8.34375 6.292969 8.320312 6.195312 8.316406 6.101562 C 8.320312 5.902344 8.417969 5.710938 8.601562 5.605469 L 8.605469 5.605469 C 8.695312 5.550781 8.789062 5.527344 8.886719 5.527344 C 9.085938 5.53125 9.277344 5.628906 9.382812 5.8125 L 9.875 5.53125 L 9.378906 5.808594 L 14.824219 15.550781 L 14.828125 15.558594 Z M 15.320312 15.269531 "/>
<path style=" stroke:none;fill-rule:nonzero;fill:rgb(100%,83.529412%,47.058824%);fill-opacity:1;" d="M 26.050781 34.195312 C 25.988281 34.195312 25.925781 34.191406 25.863281 34.179688 C 25.242188 34.078125 24.820312 33.492188 24.925781 32.871094 L 25.921875 26.902344 L 21.597656 24.980469 C 21.023438 24.722656 20.761719 24.050781 21.019531 23.472656 C 21.273438 22.898438 21.949219 22.636719 22.523438 22.894531 L 27.652344 25.175781 C 28.128906 25.386719 28.398438 25.890625 28.3125 26.40625 L 27.175781 33.246094 C 27.082031 33.800781 26.597656 34.195312 26.050781 34.195312 Z M 26.050781 34.195312 "/>
<path style=" stroke:none;fill-rule:nonzero;fill:rgb(32.941176%,34.901961%,43.137255%);fill-opacity:1;" d="M 26.050781 34.195312 L 26.050781 33.625 L 25.957031 33.617188 C 25.675781 33.574219 25.480469 33.328125 25.480469 33.058594 L 25.488281 32.964844 L 26.480469 26.992188 C 26.523438 26.738281 26.390625 26.484375 26.152344 26.378906 L 21.828125 24.457031 C 21.617188 24.363281 21.492188 24.15625 21.488281 23.9375 C 21.488281 23.859375 21.503906 23.78125 21.539062 23.707031 C 21.632812 23.492188 21.84375 23.367188 22.058594 23.367188 C 22.136719 23.367188 22.210938 23.382812 22.289062 23.414062 L 22.292969 23.417969 L 27.421875 25.695312 C 27.628906 25.789062 27.761719 25.996094 27.761719 26.21875 L 27.75 26.3125 L 26.613281 33.152344 C 26.566406 33.429688 26.324219 33.625 26.050781 33.625 L 26.050781 34.765625 C 26.875 34.765625 27.597656 34.175781 27.738281 33.339844 L 28.875 26.5 C 28.890625 26.402344 28.898438 26.308594 28.898438 26.214844 C 28.898438 25.550781 28.507812 24.933594 27.882812 24.65625 L 22.753906 22.375 L 22.757812 22.378906 C 22.53125 22.273438 22.292969 22.226562 22.058594 22.226562 C 21.402344 22.226562 20.78125 22.609375 20.496094 23.242188 C 20.398438 23.464844 20.351562 23.703125 20.351562 23.9375 C 20.347656 24.589844 20.730469 25.214844 21.367188 25.5 L 25.285156 27.242188 L 24.363281 32.777344 C 24.347656 32.871094 24.339844 32.964844 24.339844 33.058594 C 24.339844 33.882812 24.933594 34.601562 25.769531 34.742188 C 25.863281 34.757812 25.957031 34.765625 26.050781 34.765625 Z M 26.050781 34.195312 "/>
<path style=" stroke:none;fill-rule:nonzero;fill:rgb(33.333333%,65.098039%,100%);fill-opacity:1;" d="M 20.921875 21.15625 L 21.492188 15.660156 C 21.492188 14.878906 20.859375 14.25 20.078125 14.25 L 14.925781 14.25 C 14.144531 14.25 13.511719 14.878906 13.511719 15.660156 L 14.082031 21.773438 L 10.472656 25.042969 L 13.808594 28.148438 L 17.59375 23.9375 L 22.984375 26.378906 L 24.308594 22.585938 Z M 20.921875 21.15625 "/>
<path style=" stroke:none;fill-rule:nonzero;fill:rgb(32.941176%,34.901961%,43.137255%);fill-opacity:1;" d="M 20.921875 21.15625 L 21.488281 21.21875 L 22.058594 15.71875 L 22.058594 15.660156 C 22.058594 14.566406 21.171875 13.679688 20.078125 13.679688 L 14.925781 13.679688 C 13.828125 13.679688 12.941406 14.566406 12.941406 15.660156 L 12.945312 15.714844 L 13.488281 21.542969 L 10.089844 24.617188 C 9.96875 24.726562 9.902344 24.878906 9.902344 25.039062 C 9.898438 25.195312 9.964844 25.351562 10.082031 25.457031 L 13.421875 28.5625 C 13.53125 28.667969 13.683594 28.722656 13.835938 28.714844 C 13.988281 28.707031 14.132812 28.640625 14.234375 28.527344 L 17.742188 24.628906 L 22.75 26.898438 C 22.894531 26.964844 23.0625 26.964844 23.207031 26.902344 C 23.355469 26.839844 23.46875 26.71875 23.523438 26.566406 L 24.847656 22.773438 C 24.949219 22.488281 24.808594 22.175781 24.53125 22.058594 L 21.140625 20.632812 L 20.921875 21.15625 L 21.488281 21.21875 L 20.921875 21.15625 L 20.699219 21.683594 L 23.59375 22.902344 L 22.652344 25.601562 L 17.832031 23.417969 C 17.605469 23.316406 17.335938 23.371094 17.171875 23.558594 L 13.773438 27.335938 L 11.3125 25.046875 L 14.464844 22.195312 C 14.597656 22.074219 14.664062 21.898438 14.648438 21.71875 L 14.078125 15.609375 L 13.511719 15.660156 L 14.082031 15.660156 C 14.082031 15.195312 14.457031 14.820312 14.925781 14.816406 L 20.078125 14.816406 C 20.542969 14.820312 20.917969 15.195312 20.921875 15.660156 L 21.492188 15.660156 L 20.921875 15.601562 L 20.351562 21.097656 C 20.328125 21.347656 20.46875 21.585938 20.699219 21.683594 Z M 20.921875 21.15625 "/>
<path style=" stroke:none;fill-rule:nonzero;fill:rgb(32.941176%,34.901961%,43.137255%);fill-opacity:1;" d="M 6.101562 5.699219 L 29.46875 5.699219 C 29.785156 5.699219 30.039062 5.445312 30.039062 5.128906 C 30.039062 4.816406 29.785156 4.558594 29.46875 4.558594 L 6.101562 4.558594 C 5.785156 4.558594 5.53125 4.816406 5.53125 5.128906 C 5.53125 5.445312 5.785156 5.699219 6.101562 5.699219 "/>
<path style=" stroke:none;fill-rule:nonzero;fill:rgb(100%,57.254902%,49.019608%);fill-opacity:1;" d="M 4.390625 0.570312 L 6.101562 0.570312 L 6.101562 9.6875 L 4.390625 9.6875 Z M 4.390625 0.570312 "/>
<path style=" stroke:none;fill-rule:nonzero;fill:rgb(32.941176%,34.901961%,43.137255%);fill-opacity:1;" d="M 6.101562 9.6875 L 6.101562 9.121094 L 4.960938 9.121094 L 4.960938 1.140625 L 5.53125 1.140625 L 5.53125 9.6875 L 6.101562 9.6875 L 6.101562 9.121094 L 6.101562 9.6875 L 6.671875 9.6875 L 6.671875 0.570312 C 6.671875 0.417969 6.609375 0.273438 6.503906 0.167969 C 6.398438 0.0625 6.25 0 6.101562 0 L 4.390625 0 C 4.242188 0 4.09375 0.0625 3.988281 0.167969 C 3.882812 0.273438 3.820312 0.417969 3.820312 0.570312 L 3.820312 9.6875 C 3.820312 9.839844 3.882812 9.984375 3.988281 10.09375 C 4.097656 10.199219 4.238281 10.257812 4.390625 10.257812 L 6.101562 10.257812 C 6.253906 10.257812 6.398438 10.199219 6.503906 10.09375 C 6.613281 9.984375 6.671875 9.839844 6.671875 9.6875 Z M 6.101562 9.6875 "/>
<path style=" stroke:none;fill-rule:nonzero;fill:rgb(100%,57.254902%,49.019608%);fill-opacity:1;" d="M 2.683594 0.570312 L 4.390625 0.570312 L 4.390625 9.6875 L 2.683594 9.6875 Z M 2.683594 0.570312 "/>
<path style=" stroke:none;fill-rule:nonzero;fill:rgb(32.941176%,34.901961%,43.137255%);fill-opacity:1;" d="M 4.390625 9.6875 L 4.390625 9.121094 L 3.253906 9.121094 L 3.253906 1.140625 L 3.820312 1.140625 L 3.820312 9.6875 L 4.390625 9.6875 L 4.390625 9.121094 L 4.390625 9.6875 L 4.960938 9.6875 L 4.960938 0.570312 C 4.960938 0.417969 4.902344 0.273438 4.796875 0.167969 C 4.6875 0.0625 4.542969 0 4.390625 0 L 2.683594 0 C 2.53125 0 2.386719 0.0625 2.277344 0.167969 C 2.171875 0.273438 2.113281 0.417969 2.113281 0.570312 L 2.113281 9.6875 C 2.113281 9.839844 2.171875 9.984375 2.277344 10.09375 C 2.386719 10.199219 2.53125 10.257812 2.683594 10.257812 L 4.390625 10.257812 C 4.542969 10.257812 4.6875 10.199219 4.796875 10.09375 C 4.902344 9.984375 4.960938 9.839844 4.960938 9.6875 Z M 4.390625 9.6875 "/>
<path style=" stroke:none;fill-rule:nonzero;fill:rgb(100%,57.254902%,49.019608%);fill-opacity:1;" d="M 30.609375 0.570312 L 32.320312 0.570312 L 32.320312 9.6875 L 30.609375 9.6875 Z M 30.609375 0.570312 "/>
<path style=" stroke:none;fill-rule:nonzero;fill:rgb(32.941176%,34.901961%,43.137255%);fill-opacity:1;" d="M 32.320312 9.6875 L 32.320312 9.121094 L 31.179688 9.121094 L 31.179688 1.140625 L 31.75 1.140625 L 31.75 9.6875 L 32.320312 9.6875 L 32.320312 9.121094 L 32.320312 9.6875 L 32.890625 9.6875 L 32.890625 0.570312 C 32.890625 0.417969 32.828125 0.273438 32.722656 0.167969 C 32.617188 0.0625 32.46875 0 32.320312 0 L 30.609375 0 C 30.460938 0 30.3125 0.0625 30.207031 0.167969 C 30.101562 0.273438 30.039062 0.417969 30.039062 0.570312 L 30.039062 9.6875 C 30.039062 9.839844 30.097656 9.984375 30.207031 10.09375 C 30.3125 10.199219 30.457031 10.257812 30.609375 10.257812 L 32.320312 10.257812 C 32.472656 10.257812 32.613281 10.199219 32.722656 10.09375 C 32.832031 9.984375 32.890625 9.839844 32.890625 9.6875 Z M 32.320312 9.6875 "/>
<path style=" stroke:none;fill-rule:nonzero;fill:rgb(100%,57.254902%,49.019608%);fill-opacity:1;" d="M 28.898438 0.570312 L 30.609375 0.570312 L 30.609375 9.6875 L 28.898438 9.6875 Z M 28.898438 0.570312 "/>
<path style=" stroke:none;fill-rule:nonzero;fill:rgb(32.941176%,34.901961%,43.137255%);fill-opacity:1;" d="M 30.609375 9.6875 L 30.609375 9.121094 L 29.46875 9.121094 L 29.46875 1.140625 L 30.039062 1.140625 L 30.039062 9.6875 L 30.609375 9.6875 L 30.609375 9.121094 L 30.609375 9.6875 L 31.179688 9.6875 L 31.179688 0.570312 C 31.179688 0.417969 31.117188 0.273438 31.011719 0.167969 C 30.90625 0.0625 30.757812 0 30.609375 0 L 28.898438 0 C 28.75 0 28.601562 0.0625 28.496094 0.167969 C 28.390625 0.273438 28.328125 0.417969 28.328125 0.570312 L 28.328125 9.6875 C 28.328125 9.839844 28.390625 9.984375 28.496094 10.09375 C 28.605469 10.199219 28.746094 10.257812 28.898438 10.257812 L 30.609375 10.257812 C 30.761719 10.257812 30.90625 10.199219 31.011719 10.09375 C 31.121094 9.984375 31.179688 9.839844 31.179688 9.6875 Z M 30.609375 9.6875 "/>
<path style=" stroke:none;fill-rule:nonzero;fill:rgb(32.941176%,34.901961%,43.137255%);fill-opacity:1;" d="M 0.972656 5.699219 L 2.683594 5.699219 C 2.996094 5.699219 3.253906 5.445312 3.253906 5.128906 C 3.253906 4.816406 2.996094 4.558594 2.683594 4.558594 L 0.972656 4.558594 C 0.65625 4.558594 0.402344 4.816406 0.402344 5.128906 C 0.402344 5.445312 0.65625 5.699219 0.972656 5.699219 "/>
<path style=" stroke:none;fill-rule:nonzero;fill:rgb(32.941176%,34.901961%,43.137255%);fill-opacity:1;" d="M 32.320312 5.699219 L 34.027344 5.699219 C 34.34375 5.699219 34.597656 5.445312 34.597656 5.128906 C 34.597656 4.816406 34.34375 4.558594 34.027344 4.558594 L 32.320312 4.558594 C 32.003906 4.558594 31.75 4.816406 31.75 5.128906 C 31.75 5.445312 32.003906 5.699219 32.320312 5.699219 "/>
</g>
</svg>
